<?xml version="1.0" encoding="UTF-8" standalone="no"?><!DOCTYPE svg PUBLIC "-//W3C//DTD SVG 1.1//EN" "http://www.w3.org/Graphics/SVG/1.1/DTD/svg11.dtd"><svg width="100%" height="100%" viewBox="0 0 81 81" version="1.1" xmlns="http://www.w3.org/2000/svg" xmlns:xlink="http://www.w3.org/1999/xlink" xml:space="preserve" xmlns:serif="http://www.serif.com/" style="fill-rule:evenodd;clip-rule:evenodd;stroke-linecap:round;stroke-linejoin:round;stroke-miterlimit:1.5;"><g><path d="M59.338,1.338c11.046,0 20,8.955 20,20l0,38c0,11.046 -8.954,20 -20,20l-38,0c-11.045,0 -20,-8.954 -20,-20l0,-38c0,-11.045 8.955,-20 20,-20l38,0Z" style="fill:none;"/><clipPath id="_clip1"><path d="M59.338,1.338c11.046,0 20,8.955 20,20l0,38c0,11.046 -8.954,20 -20,20l-38,0c-11.045,0 -20,-8.954 -20,-20l0,-38c0,-11.045 8.955,-20 20,-20l38,0Z"/></clipPath><g clip-path="url(#_clip1)"><path d="M-3.662,27.578c7.903,17.825 25.346,32.298 45,32.298c19.654,-0 37.098,-14.473 45,-32.298c0,37.674 -20.164,68.26 -45,68.26c-24.836,0 -45,-30.586 -45,-68.26Z" style="fill:#fff;"/></g><path d="M59.338,1.338c11.046,0 20,8.955 20,20l0,38c0,11.046 -8.954,20 -20,20l-38,0c-11.045,0 -20,-8.954 -20,-20l0,-38c0,-11.045 8.955,-20 20,-20l38,0Z" style="fill:none;stroke:#000;stroke-width:2.68px;"/><g><g><path d="M13.338,24.656c5.316,-6.138 10.224,-5.989 14.727,0" style="fill:none;stroke:#000;stroke-width:3.88px;"/><path d="M52.611,24.656c5.316,-6.138 10.224,-5.989 14.727,0" style="fill:none;stroke:#000;stroke-width:3.88px;"/></g><path d="M51.384,32.02c-7.974,6.138 -15.337,5.99 -22.091,0" style="fill:none;stroke:#000;stroke-width:3.88px;"/></g></g></svg>